<svg version="1.0" xmlns="http://www.w3.org/2000/svg"
 x="0px" y="0px" width="70px" height="70px" viewBox="5 -85 775 1400"
 preserveAspectRatio="xMidYMid meet">
<g transform="translate(0.000000,1239.000000) scale(0.100000,-0.100000)"
fill="#ff0000" stroke="none">
<path d="M54 12342 c-9 -5 -13 -1398 -19 -5294 l-7 -5288 2708 -2 2709 -3 5
-515 5 -515 25 0 25 0 5 515 5 515 748 3 747 2 0 25 0 25 -3448 0 c-2743 0
-3452 3 -3465 13 -16 11 -17 168 -15 2477 l3 2465 3463 3 3462 2 0 30 0 30
-750 2 -750 3 0 2751 c0 2437 -2 2753 -15 2758 -22 8 -5428 7 -5441 -2z m1441
-1167 c43 -42 84 -79 92 -84 8 -4 51 -44 96 -88 45 -44 134 -126 197 -183 63
-57 156 -142 205 -189 50 -47 138 -129 195 -181 157 -143 222 -203 244 -226
27 -26 292 -271 329 -304 16 -14 52 -47 81 -75 28 -27 94 -88 146 -135 159
-144 202 -184 244 -225 65 -64 233 -215 240 -215 3 0 6 429 6 953 0 728 3 956
12 965 14 14 563 17 572 3 4 -6 10 -3125 6 -3298 0 -26 -37 -11 -90 38 -110
101 -296 275 -337 316 -24 23 -49 46 -57 50 -8 4 -52 44 -98 88 -46 44 -162
152 -258 240 -96 88 -184 169 -195 181 -11 11 -78 74 -150 139 -154 140 -383
354 -441 410 -22 22 -69 65 -104 95 -35 30 -84 75 -110 100 -25 25 -88 83
-140 130 -52 47 -116 107 -143 134 -26 27 -50 46 -54 43 -3 -4 -6 -410 -7
-904 0 -494 -5 -904 -9 -910 -11 -18 -557 -19 -575 -1 -9 9 -12 378 -12 1598
0 1582 1 1610 31 1610 3 0 41 -34 84 -75z"/>
<path d="M748 6319 c-5 -4 -8 -15 -6 -25 3 -19 55 -19 2063 -19 l2060 0 3 22
3 23 -2056 2 c-1131 2 -2061 0 -2067 -3z"/>
<path d="M3814 5701 c-66 -36 -98 -84 -123 -184 l-19 -72 -41 -3 -41 -3 0 -49
0 -49 43 -3 42 -3 3 -287 2 -288 60 0 60 0 0 279 c0 215 3 281 13 289 7 6 40
12 72 14 l60 3 0 45 0 45 -62 3 c-70 3 -88 17 -79 59 11 49 43 91 87 113 34
18 46 19 71 11 38 -13 41 -11 58 39 12 36 12 43 -1 51 -24 15 -171 8 -205 -10z"/>
<path d="M5640 5577 c0 -156 -4 -167 -51 -141 -36 20 -170 18 -216 -3 -21 -10
-44 -24 -51 -30 -7 -7 -17 -13 -22 -13 -10 0 -75 -87 -103 -139 -17 -31 -20
-55 -20 -171 -1 -144 2 -154 62 -239 43 -60 138 -102 228 -101 40 1 119 19
140 33 7 4 22 3 33 -3 11 -6 42 -10 68 -8 l47 3 0 475 0 475 -57 3 -58 3 0
-144z m-79 -242 c76 -33 74 -27 77 -218 2 -94 1 -185 -3 -202 -7 -40 -58 -65
-131 -65 -129 0 -204 87 -204 237 0 121 55 214 145 247 52 19 75 19 116 1z"/>
<path d="M995 5695 c-73 -19 -114 -43 -168 -98 -107 -110 -153 -285 -127 -484
7 -54 19 -107 26 -118 8 -11 14 -25 14 -33 0 -28 122 -172 145 -172 6 0 16 -5
23 -12 35 -35 209 -49 304 -24 67 17 158 73 158 97 0 17 -57 89 -71 89 -4 0
-21 -12 -38 -27 -39 -34 -105 -62 -151 -62 -104 -2 -218 90 -258 211 -39 115
-29 259 27 377 26 56 101 124 153 139 65 19 173 9 250 -23 13 -5 19 -2 23 11
4 11 13 32 21 49 15 28 15 30 -10 50 -18 14 -54 25 -109 33 -100 14 -146 14
-212 -3z"/>
<path d="M3330 5680 c-27 -27 -27 -83 2 -110 31 -28 74 -26 103 6 29 31 30 44
10 83 -23 46 -80 56 -115 21z"/>
<path d="M4186 5679 c-51 -40 -18 -129 48 -129 49 0 76 24 76 68 0 43 -7 55
-37 71 -32 16 -57 14 -87 -10z"/>
<path d="M2845 5612 c-16 -8 -37 -18 -45 -22 -10 -5 -17 -28 -20 -76 l-5 -69
-35 -5 c-34 -5 -35 -6 -35 -50 0 -44 1 -45 35 -50 l35 -5 5 -230 c5 -250 8
-262 67 -316 46 -42 85 -52 176 -46 104 6 117 12 117 47 0 57 -5 60 -95 60
-91 0 -102 6 -130 73 -20 49 -22 389 -2 405 7 6 49 12 92 14 l80 3 0 45 0 45
-82 5 c-45 3 -87 10 -92 15 -6 6 -11 46 -13 89 -2 44 -7 80 -13 82 -5 1 -23
-5 -40 -14z"/>
<path d="M1665 5430 c-138 -65 -226 -241 -196 -395 19 -96 24 -110 57 -160 74
-113 222 -160 384 -121 82 20 120 42 120 71 0 13 -5 27 -11 30 -5 4 -15 18
-20 32 -9 23 -11 24 -27 11 -78 -69 -249 -65 -313 8 -42 48 -69 145 -48 170 9
11 55 14 245 14 l234 0 6 26 c10 41 -4 141 -26 185 -27 53 -85 107 -135 127
-63 24 -220 26 -270 2z m198 -95 c20 -8 52 -31 72 -52 30 -31 35 -43 33 -73
l-3 -35 -173 -3 c-147 -2 -173 0 -178 13 -11 27 6 65 46 104 60 58 134 75 203
46z"/>
<path d="M2450 5430 c-19 -11 -45 -32 -57 -47 -23 -29 -29 -25 -35 27 -3 23
-8 25 -60 28 l-58 3 0 -341 0 -340 60 0 60 0 0 216 c0 242 7 273 74 332 46 40
71 47 117 32 46 -16 62 -6 79 46 19 57 10 64 -72 63 -53 0 -83 -6 -108 -19z"/>
<path d="M4650 5432 c-115 -55 -181 -145 -200 -274 -29 -191 54 -348 211 -402
97 -34 302 -4 341 49 10 13 0 43 -24 77 l-19 27 -41 -29 c-37 -27 -49 -30
-115 -30 -53 0 -84 5 -111 19 -69 35 -116 110 -110 176 l3 40 234 3 c152 1
239 6 248 13 24 21 7 173 -24 210 -7 8 -13 20 -13 25 0 17 -48 54 -108 84 -54
27 -70 30 -149 29 -60 0 -99 -6 -123 -17z m183 -94 c22 -7 55 -27 72 -46 37
-37 55 -99 33 -113 -7 -5 -89 -8 -183 -6 -164 2 -170 3 -173 23 -5 32 57 106
108 131 52 25 86 28 143 11z"/>
<path d="M3224 5426 c-3 -8 -4 -29 -2 -48 3 -30 6 -33 38 -36 19 -2 41 -8 47
-14 10 -8 13 -78 13 -289 l0 -279 60 0 60 0 -2 338 -3 337 -103 3 c-82 2 -103
0 -108 -12z"/>
<path d="M4084 5426 c-3 -8 -4 -29 -2 -48 3 -28 7 -33 33 -36 56 -7 55 -2 55
-303 l0 -279 65 0 65 0 -2 338 -3 337 -103 3 c-82 2 -103 0 -108 -12z"/>
<path d="M1412 4163 c-112 -65 -161 -247 -110 -409 17 -54 31 -78 70 -116 42
-41 55 -47 103 -53 131 -17 218 23 267 122 21 43 23 61 23 183 0 121 -2 139
-23 176 -46 84 -118 125 -220 123 -52 -1 -77 -7 -110 -26z m156 -57 c18 -6 48
-26 66 -43 73 -72 74 -260 2 -349 -109 -137 -266 -31 -266 178 0 106 38 184
105 213 37 16 51 17 93 1z"/>
<path d="M705 4167 c-3 -7 -4 -138 -3 -292 l3 -280 35 0 35 0 3 188 c1 114 6
187 12 187 10 0 80 -92 224 -295 37 -53 73 -94 80 -92 8 3 11 86 11 298 l0
294 -35 0 -35 0 -3 -182 c-1 -110 -6 -183 -12 -183 -9 0 -174 214 -248 323
-32 46 -58 59 -67 34z"/>
<path d="M1913 4143 c2 -21 14 -63 26 -93 13 -30 26 -66 31 -80 5 -14 18 -50
30 -80 12 -30 24 -66 27 -80 3 -14 12 -34 19 -45 8 -11 14 -29 14 -42 0 -12 4
-24 9 -27 5 -3 14 -25 20 -49 13 -53 35 -76 59 -60 16 10 46 76 61 138 4 17
12 39 18 50 6 11 16 36 22 55 51 145 62 177 71 192 6 10 10 26 10 36 0 10 7
27 15 38 8 10 15 34 15 52 0 32 -1 33 -36 30 -21 -2 -40 -10 -44 -18 -24 -51
-41 -97 -69 -190 -38 -123 -67 -190 -81 -190 -5 0 -10 9 -10 21 0 11 -6 33
-14 47 -16 33 -35 85 -46 131 -5 18 -13 38 -19 44 -6 6 -11 21 -11 33 0 12 -8
37 -17 56 -9 18 -19 40 -23 48 -4 8 -23 16 -45 18 l-37 3 5 -38z"/>
<path d="M2527 4174 c-4 -4 -7 -137 -7 -296 l0 -288 176 0 175 0 -3 33 -3 32
-130 5 -130 5 0 100 0 100 90 5 90 5 0 30 0 30 -90 5 -90 5 0 75 0 75 130 5
130 5 0 35 0 35 -166 3 c-91 1 -168 -1 -172 -4z"/>
<path d="M3050 3885 l0 -295 168 2 167 3 0 30 0 30 -122 3 c-84 2 -124 7 -132
16 -7 8 -12 101 -13 257 l-3 244 -32 3 -33 3 0 -296z"/>
<path d="M3547 4173 c-4 -3 -7 -136 -7 -295 l0 -288 176 0 175 0 -3 33 -3 32
-120 3 c-98 2 -122 5 -132 19 -10 12 -13 81 -13 260 l0 243 -33 0 c-19 0 -37
-3 -40 -7z"/>
<path d="M3823 3204 c-17 -7 -43 -29 -57 -47 -22 -28 -26 -44 -26 -98 0 -85
26 -124 100 -154 8 -4 22 -11 30 -16 8 -5 29 -15 46 -23 66 -29 86 -111 39
-156 -19 -18 -35 -23 -80 -22 -31 0 -62 6 -70 12 -21 17 -54 2 -61 -27 -9 -33
10 -48 78 -63 131 -28 248 48 248 162 0 54 -25 108 -61 136 -13 10 -55 34 -92
52 -83 42 -89 49 -91 100 -1 56 27 83 88 82 25 -1 56 -7 68 -13 18 -10 24 -8
40 11 10 13 17 30 16 39 -7 35 -153 52 -215 25z"/>
<path d="M5531 3178 c-10 -24 -26 -63 -36 -88 -9 -25 -23 -58 -30 -75 -7 -16
-20 -50 -30 -75 -9 -25 -23 -58 -30 -75 -7 -16 -19 -48 -28 -70 -8 -22 -25
-64 -37 -93 -25 -62 -21 -82 15 -82 42 0 65 17 65 50 0 54 31 70 137 70 l93 0
19 -42 c11 -24 22 -51 25 -60 4 -13 16 -18 47 -18 41 0 41 0 36 33 -2 17 -14
57 -26 87 -21 54 -57 151 -82 220 -12 36 -25 67 -53 133 -9 21 -16 44 -16 52
0 17 -33 75 -42 75 -5 0 -16 -19 -27 -42z m54 -215 c9 -32 24 -75 33 -95 23
-58 13 -68 -63 -68 -75 0 -87 12 -66 64 7 17 16 45 21 61 13 50 40 106 49 101
4 -3 16 -31 26 -63z"/>
<path d="M6511 3208 c-56 -16 -96 -54 -129 -123 -30 -60 -32 -72 -32 -174 0
-76 4 -118 14 -138 8 -15 18 -35 21 -43 35 -89 134 -140 236 -121 102 18 132
39 178 123 30 55 31 61 31 179 0 111 -2 127 -26 176 -15 29 -43 66 -63 82 -58
45 -153 62 -230 39z m160 -90 c58 -43 72 -81 73 -198 0 -94 -2 -110 -24 -149
-35 -63 -69 -85 -130 -85 -63 0 -97 24 -129 90 -20 41 -24 65 -24 144 0 105
19 159 69 199 38 30 124 29 165 -1z"/>
<path d="M872 3198 c-6 -6 -12 -20 -12 -29 0 -10 -7 -31 -15 -48 -8 -17 -22
-45 -30 -62 -8 -17 -15 -37 -15 -44 0 -7 -6 -26 -14 -42 -18 -36 -39 -86 -61
-143 -22 -56 -40 -100 -61 -144 -22 -47 -13 -66 31 -66 33 0 37 3 63 58 l27
57 85 3 c109 4 128 -1 136 -36 16 -64 32 -82 74 -82 47 0 48 5 19 80 -11 30
-24 66 -29 80 -5 14 -18 50 -30 80 -12 30 -25 66 -30 80 -5 14 -18 50 -30 80
-12 30 -25 66 -30 80 -39 111 -50 126 -78 98z m44 -215 c3 -16 10 -38 15 -51
22 -54 30 -115 17 -124 -15 -9 -99 -11 -122 -2 -17 7 -21 34 -8 50 5 5 19 42
31 82 18 55 28 72 42 72 12 0 21 -9 25 -27z"/>
<path d="M1275 3199 c-3 -8 -4 -140 -3 -294 l3 -280 65 -3 c118 -6 186 6 233
42 66 50 93 98 106 190 23 150 -13 256 -108 320 -41 27 -51 29 -167 34 -100 4
-125 2 -129 -9z m223 -78 c48 -25 68 -48 87 -100 25 -73 14 -191 -24 -250 -30
-46 -90 -81 -141 -81 -25 0 -51 5 -58 12 -9 9 -12 70 -12 215 0 182 2 203 18
212 27 16 90 13 130 -8z"/>
<path d="M4815 3199 c-3 -8 -4 -140 -3 -294 l3 -280 35 0 35 0 5 120 5 120 33
3 c36 4 58 -10 73 -43 13 -26 25 -46 83 -132 44 -67 51 -73 82 -73 41 0 54 22
30 49 -9 10 -16 20 -16 24 0 3 -19 34 -43 69 -23 35 -48 76 -55 92 -12 28 -11
30 23 58 85 71 87 206 3 268 -30 22 -44 25 -160 28 -102 4 -129 2 -133 -9z
m210 -75 c18 -8 40 -30 50 -48 17 -31 17 -34 0 -70 -20 -42 -65 -66 -124 -66
-53 0 -61 13 -61 102 0 63 3 79 18 87 25 15 80 13 117 -5z"/>
<path d="M7015 3197 c-3 -7 -4 -138 -3 -292 l3 -280 40 0 40 0 5 120 5 120 34
3 c27 3 39 -2 57 -25 13 -15 23 -31 24 -35 0 -4 14 -27 30 -51 17 -25 30 -48
30 -51 0 -9 42 -69 55 -78 14 -11 85 -10 85 1 0 15 -36 76 -111 189 -16 24
-29 47 -29 52 0 5 20 30 45 56 l45 46 0 77 c0 76 -1 79 -35 113 -42 42 -69 48
-213 48 -74 0 -104 -4 -107 -13z m225 -77 c30 -15 40 -27 45 -53 14 -75 -42
-129 -130 -125 l-50 3 -3 84 c-2 46 -1 90 2 98 8 20 91 16 136 -7z"/>
<path d="M1910 3166 c0 -19 -5 -47 -11 -63 -6 -15 -15 -55 -19 -88 -8 -60 -20
-124 -46 -245 -8 -36 -14 -84 -14 -108 0 -43 0 -43 32 -40 29 3 33 8 44 48 11
41 26 118 42 228 4 23 11 44 16 45 5 1 18 -20 29 -48 10 -27 23 -58 28 -67 5
-10 13 -34 18 -55 34 -139 77 -197 92 -125 4 19 12 39 18 45 6 6 11 21 11 34
0 12 6 37 14 55 22 54 38 101 43 131 13 69 44 20 62 -98 6 -39 17 -97 24 -130
13 -59 13 -60 47 -60 31 0 35 3 33 25 -3 53 -19 146 -26 157 -4 7 -12 40 -17
75 -5 35 -14 86 -20 113 -6 28 -19 85 -28 127 -15 69 -20 78 -39 78 -17 0 -24
-7 -28 -27 -4 -16 -13 -43 -21 -61 -8 -18 -14 -41 -14 -52 0 -11 -6 -34 -14
-52 -22 -55 -46 -134 -46 -156 0 -49 -43 -28 -56 28 -3 14 -11 41 -19 60 -7
19 -22 67 -34 105 -39 133 -47 150 -75 153 -24 3 -26 0 -26 -32z"/>
<path d="M2542 2913 l3 -288 40 0 40 0 3 288 2 287 -45 0 -45 0 2 -287z"/>
<path d="M2842 2913 l3 -288 35 0 35 0 3 183 c2 174 3 182 22 182 11 0 20 -4
20 -8 0 -5 27 -47 60 -93 33 -46 88 -124 122 -172 61 -86 89 -113 102 -100 3
3 6 136 6 295 l0 288 -40 0 -40 0 0 -179 c0 -128 -3 -182 -12 -187 -6 -4 -14
-2 -16 5 -2 7 -37 57 -78 112 -41 54 -74 103 -74 107 0 5 -13 21 -30 37 -16
16 -30 33 -30 37 0 22 -46 68 -67 68 l-23 0 2 -287z"/>
<path d="M3472 2913 l3 -288 35 0 35 0 3 288 2 287 -40 0 -40 0 2 -287z"/>
<path d="M4190 3170 l0 -30 84 0 c57 0 87 -4 95 -13 7 -9 12 -98 13 -258 l3
-244 35 0 35 0 5 255 5 255 98 3 97 3 0 29 0 30 -235 0 -235 0 0 -30z"/>
<path d="M5810 3171 l0 -30 88 -3 87 -3 5 -255 5 -255 40 0 40 0 5 255 5 255
90 5 c88 5 90 6 90 30 l0 25 -227 3 -228 2 0 -29z"/>
<path d="M7551 3174 c-40 -51 -21 -113 46 -145 73 -35 90 -81 39 -109 -18 -9
-28 -9 -46 0 -29 16 -52 5 -48 -22 3 -20 10 -23 58 -26 47 -2 59 1 83 23 21
21 27 35 27 70 0 46 -9 57 -90 108 -63 41 -45 91 34 92 30 0 41 4 41 15 0 11
-15 16 -61 18 -57 3 -64 1 -83 -24z"/>
<path d="M7812 3133 c-7 -38 -16 -95 -21 -128 -5 -33 -15 -73 -21 -89 -13 -34
-1 -51 28 -42 16 5 21 19 26 75 5 50 12 71 23 75 16 7 33 -9 33 -29 0 -25 36
-125 45 -125 8 0 29 58 52 143 11 43 41 -7 50 -86 6 -48 24 -70 43 -51 10 10
-11 149 -29 197 -6 16 -11 46 -11 67 0 21 -5 42 -11 45 -15 10 -49 -24 -49
-49 -1 -22 -33 -122 -43 -132 -6 -6 -47 81 -47 99 0 24 -33 97 -44 97 -7 0
-17 -30 -24 -67z"/>
<path d="M4100 590 l0 -530 85 0 85 0 0 530 0 530 -85 0 -84 0 -1 -530z"/>
<path d="M4500 590 l0 -531 83 3 82 3 0 525 0 525 -82 3 -83 3 0 -531z"/>
<path d="M50 565 l0 -505 80 0 80 0 0 295 c0 274 1 295 18 295 9 0 53 -35 98
-78 44 -42 129 -122 189 -177 181 -165 214 -196 304 -282 47 -45 92 -83 99
-83 10 0 12 107 10 518 l-3 517 -80 0 -80 0 -5 -300 c-5 -285 -6 -300 -24
-303 -13 -3 -35 12 -65 41 -25 25 -70 67 -99 94 -30 26 -75 68 -101 93 -26 25
-92 86 -146 135 -164 149 -240 219 -248 233 -4 6 -12 12 -17 12 -6 0 -10 -193
-10 -505z"/>
<path d="M3357 891 c-125 -26 -275 -166 -277 -256 0 -12 -5 -26 -10 -31 -16
-16 -16 -222 -1 -269 53 -163 159 -261 312 -286 83 -14 210 -4 265 21 23 11
46 20 49 20 15 0 113 81 138 113 33 44 35 73 5 83 -13 4 -40 18 -60 30 -21 13
-41 24 -46 24 -4 0 -21 -18 -37 -39 -17 -21 -46 -49 -65 -62 -19 -13 -38 -28
-41 -33 -11 -15 -153 -20 -193 -6 -20 6 -51 24 -68 38 -48 41 -98 125 -98 167
l0 35 183 1 c359 2 445 4 452 10 8 9 -11 182 -23 206 -5 10 -17 35 -27 56 -28
58 -96 123 -159 152 -47 21 -76 27 -159 30 -56 2 -119 0 -140 -4z m162 -141
c59 -11 107 -44 146 -99 22 -33 25 -43 15 -60 -10 -20 -18 -21 -208 -21 -204
0 -222 3 -222 42 0 9 24 42 53 72 41 41 64 56 98 64 60 13 59 13 118 2z"/>
<path d="M1510 884 c-28 -5 -53 -16 -119 -48 -42 -20 -141 -104 -141 -119 0
-4 -11 -25 -25 -47 -65 -103 -67 -281 -4 -410 22 -45 139 -170 160 -170 5 0
31 -10 57 -22 41 -20 62 -23 167 -22 135 0 181 15 263 81 52 43 119 130 128
169 4 16 11 35 17 42 17 21 12 211 -6 265 -37 106 -117 198 -212 241 -22 11
-48 23 -58 28 -20 10 -188 18 -227 12z m198 -187 c100 -53 142 -122 142 -231
0 -111 -54 -194 -161 -246 -68 -32 -116 -27 -214 22 -93 47 -159 202 -121 282
9 19 16 41 16 50 0 22 78 100 125 125 57 30 155 29 213 -2z"/>
<path d="M2130 883 c0 -4 25 -59 56 -122 31 -64 64 -134 74 -156 10 -22 39
-83 64 -136 25 -53 46 -101 46 -108 0 -6 4 -11 9 -11 5 0 13 -10 16 -22 4 -13
25 -61 47 -108 22 -47 49 -105 60 -130 12 -25 22 -46 23 -48 5 -6 35 11 35 21
0 10 20 54 110 242 86 180 157 329 195 410 20 44 45 98 56 121 10 22 19 44 19
48 0 4 -42 5 -92 4 l-93 -3 -30 -62 c-16 -34 -38 -81 -49 -105 -10 -24 -25
-55 -32 -70 -8 -14 -14 -33 -14 -42 0 -9 -4 -16 -10 -16 -5 0 -10 -6 -10 -12
-1 -7 -9 -31 -20 -53 -11 -22 -19 -45 -20 -51 0 -6 -9 -19 -21 -30 -20 -18
-21 -18 -35 1 -8 10 -14 25 -14 32 0 7 -4 21 -10 31 -5 9 -19 40 -30 67 -36
85 -76 177 -121 273 l-20 42 -95 0 c-52 0 -94 -3 -94 -7z"/>
<path d="M4960 393 c-46 -30 -80 -67 -80 -85 0 -24 17 -23 25 2 8 25 61 66 97
75 16 4 25 11 22 16 -8 14 -37 11 -64 -8z"/>
<path d="M5056 401 c-3 -5 9 -12 27 -15 42 -8 93 -53 102 -89 9 -33 25 -36 25
-4 -1 56 -130 147 -154 108z"/>
<path d="M4980 238 c0 -69 4 -108 9 -103 5 6 11 26 13 45 3 37 27 52 47 28 49
-60 60 -71 61 -60 0 7 -8 24 -17 38 -16 24 -15 28 2 62 11 21 20 40 22 44 2 4
-8 18 -22 32 -20 20 -36 26 -70 26 l-45 0 0 -112z m98 70 c34 -34 -13 -82 -57
-59 -20 11 -29 50 -14 64 11 11 58 8 71 -5z"/>
<path d="M4867 273 c-11 -10 -8 -73 3 -73 6 0 10 18 10 40 0 41 -2 45 -13 33z"/>
<path d="M5187 170 c-6 -17 -24 -36 -39 -43 -26 -11 -40 -47 -19 -47 19 0 81
75 81 98 0 31 -10 28 -23 -8z"/>
<path d="M4880 156 c0 -8 20 -32 45 -54 48 -42 98 -57 154 -46 54 11 34 24
-36 24 -66 0 -67 0 -110 45 -45 48 -53 53 -53 31z"/>
</g>
</svg>
