          <svg version="1.0" xmlns="http://www.w3.org/2000/svg" width="60px" height="60px" viewBox="-50 0 370 250"
            preserveAspectRatio="xMidYMid meet">

            <g transform="translate(0.000000,268.000000) scale(0.100000,-0.100000)" fill="#f00" stroke="">
              <path
                d="M0 1340 l0 -1340 1380 0 1380 0 0 1340 0 1340 -1380 0 -1380 0 0 -1340z m2388 337 l2 -778 -67 3 -68 3 -3 80 -3 81 -47 -46 c-128 -123 -327 -150 -494 -68 -65 33 -68 33 -90 16 -34 -26 -116 -55 -178 -63 -75 -9 -173 10 -239 47 l-54 30 -68 -32 c-38 -17 -98 -36 -134 -42 -129 -22 -278 27 -377 124 l-48 47 0 -430 0 -429 -65 0 -65 0 0 779 0 780 65 0 65 0 0 -92 0 -91 41 42 c86 90 187 132 317 132 95 0 160 -16 224 -54 l40 -24 47 27 c124 73 293 72 426 -3 l43 -24 39 24 c75 44 129 56 233 52 84 -3 105 -8 163 -36 36 -18 87 -53 112 -78 l45 -46 0 420 c0 230 3 422 7 426 4 4 34 6 68 4 l60 -3 3 -778z" />
              <path
                d="M1832 1651 c-74 -19 -161 -98 -200 -181 -52 -111 -24 -262 62 -337 60 -53 114 -76 191 -81 122 -7 230 50 292 156 21 35 27 62 31 122 4 68 1 84 -23 139 -31 69 -94 133 -160 162 -50 22 -145 32 -193 20z" />
              <path
                d="M1295 1634 c-22 -8 -43 -18 -48 -23 -4 -4 6 -37 23 -73 61 -131 61 -268 -1 -399 -36 -75 -32 -81 61 -97 80 -15 220 7 220 34 0 2 -13 30 -29 62 -68 135 -67 280 4 416 29 56 29 57 -49 81 -61 19 -129 18 -181 -1z" />
              <path
                d="M770 1626 c-125 -44 -201 -149 -202 -277 0 -91 30 -165 91 -222 56 -53 88 -70 156 -86 65 -15 172 -3 209 24 18 13 18 15 -2 42 -11 16 -30 58 -42 93 -19 54 -21 81 -18 161 4 84 9 104 41 170 25 53 32 76 24 81 -45 29 -194 37 -257 14z" />
              <path d="M1132 1497 c-43 -51 -55 -193 -23 -263 27 -59 37 -60 56 -9 33 85 5 318 -33 272z" />
            </g>
          </svg>
